<svg version="1.1" xmlns="http://www.w3.org/2000/svg" xmlns:xlink="http://www.w3.org/1999/xlink" width="81.5" height="78.98373" viewBox="0,0,81.5,78.98373"><g transform="translate(-200.58402,-134.90125)"><g data-paper-data="{&quot;isPaintingLayer&quot;:true}" fill-rule="evenodd" stroke-miterlimit="10" stroke-dasharray="" stroke-dashoffset="0" style="mix-blend-mode: normal"><g><path d="M263.62733,204.48499c0.8,0.4 2.5,1.3 0.1,4.7c-2.4,3.4 -9.3,4.1 -10.1,4.1c-3.1,0.1 -6.9,0.1 -11.1,-1.3c-12.2,-4 -12.3,-17.1 -8.4,-19.2c3.8,-2.1 5.5,6 11,10.9c2.4,2.2 5.3,3 7.7,3.5c3.4,0.6 9.9,-3.2 10.8,-2.7z" fill="#ffab19" stroke="#001026" stroke-width="1.2" stroke-linecap="round" stroke-linejoin="round"/><path d="M238.82733,196.38499c1.6,2.7 4.7,6.5 4.7,6.5c0,0 -3.7,-0.9 -5.8,0.8c-1.7,1.3 -1.3,3.5 -1.1,4.2c-1.3,-1.3 -2.9,-3.1 -3.9,-6.6c-1,-3.5 0,-7.7 2,-8.3c2,-0.4 2.5,1.1 4.1,3.4z" fill="#ffffff" stroke="none" stroke-width="1" stroke-linecap="butt" stroke-linejoin="miter"/></g><g><path d="M248.28402,135.40048c0.3,-0.2 0.8,-0.1 0.9,0.3l2.6,10.7c0,0 6.4,4.7 8.3,8c3.2,5.5 3.3,10 3.3,10c0,0 7.1,2.1 8.3,7.8c1.2,5.7 -3.2,16.5 -22,20.2c-18.8,3.7 -33.9,-1.4 -41,-12.8c-7.1,-11.4 4.1,-25 3.5,-24.2l-2.1,-17.9c-0.1,-0.4 0.4,-0.7 0.8,-0.5l12.1,7.9c0,0 4.5,-1.7 9.2,-1.9c2.8,-0.2 5.2,0 7.5,0.4z" fill="#ffab19" stroke="#001026" stroke-width="1.2" stroke-linecap="butt" stroke-linejoin="miter"/><path d="M263.08402,164.80048c0,0 6.9,1.8 8.1,7.5c1.2,5.7 -3.6,16 -22.2,19.6c-24.2,5 -35.7,-9.4 -29,-20c6.7,-10.7 18.2,-1.6 26.6,-2.2c7.2,-0.5 8,-6.8 16.5,-4.9z" fill="#ffffff" stroke="none" stroke-width="1" stroke-linecap="butt" stroke-linejoin="miter"/><path d="M231.58402,175.50048c0,-0.4 0.4,-0.7 0.8,-0.6c1.9,0.7 7.3,2.3 13.3,2.7c5.4,0.3 8.6,0 10.1,-0.3c0.5,-0.1 0.9,0.4 0.7,0.9c-0.9,2.7 -4.7,10.2 -15.2,9.6c-9.1,-1 -10,-7.4 -9.7,-12.3z" fill="#ffffff" stroke="#001026" stroke-width="1.2" stroke-linecap="round" stroke-linejoin="round"/><path d="M281.48402,165.90048c-4.7,3.8 -11.9,3.9 -11.9,3.9" fill="none" stroke="#001026" stroke-width="1.2" stroke-linecap="round" stroke-linejoin="round"/><path d="M280.18402,177.10048c-6.3,0.5 -10.2,-1.4 -10.2,-1.4" fill="none" stroke="#001026" stroke-width="1.2" stroke-linecap="round" stroke-linejoin="round"/><path d="M246.18402,167.10048c2.1,0 4.3,0.2 4.4,0.9c0.1,1.4 -1.4,4.2 -3,4.3c-1.8,0.2 -6,-2.3 -6,-3.9c-0.1,-1.2 2.6,-1.3 4.6,-1.3z" fill="#001026" stroke="#001026" stroke-width="1.2" stroke-linecap="round" stroke-linejoin="round"/><path d="M201.18402,165.60048c0,0 8.6,2.8 12.1,5.9" fill="none" stroke="#001026" stroke-width="1.2" stroke-linecap="round" stroke-linejoin="round"/><path d="M213.58402,175.00048c-4.3,1.7 -11.7,0.6 -11.7,0.6" fill="none" stroke="#001026" stroke-width="1.2" stroke-linecap="round" stroke-linejoin="round"/><g><path d="M257.98402,155.40048c2.9,4.5 3,9.6 0.2,11.4c-2.8,1.8 -7.4,-0.3 -10.4,-4.8c-2.9,-4.5 -3,-9.6 -0.2,-11.4c2.8,-1.9 7.5,0.3 10.4,4.8z" fill="#ffffff" stroke="#001026" stroke-width="1.2" stroke-linecap="round" stroke-linejoin="round"/><path d="M257.58402,161.10048c0,1.1 -0.8,2 -1.8,2c-1,0 -1.8,-0.9 -1.8,-2c0,-1.1 0.8,-2 1.8,-2c1,0 1.8,0.9 1.8,2" fill="#001026" stroke="none" stroke-width="1" stroke-linecap="butt" stroke-linejoin="miter"/></g><g><path d="M233.18402,158.20048c3,4.4 2.8,9.8 0.1,11.7c-3.3,1.9 -7.7,0.5 -10.7,-3.9c-3.1,-4.4 -3.3,-10.1 -0.2,-12.3c3.1,-2.3 7.8,0.1 10.8,4.5z" fill="#ffffff" stroke="#001026" stroke-width="1.2" stroke-linecap="round" stroke-linejoin="round"/><path d="M232.58402,164.00048c0,1.1 -0.8,2 -1.8,2c-1,0 -1.8,-0.9 -1.8,-2c0,-1.1 0.8,-2 1.8,-2c1,0.1 1.8,0.9 1.8,2" fill="#001026" stroke="none" stroke-width="1" stroke-linecap="butt" stroke-linejoin="miter"/></g></g></g></g></svg>